<?xml version="1.0" ?><!DOCTYPE svg  PUBLIC '-//W3C//DTD SVG 1.1//EN'  'http://www.w3.org/Graphics/SVG/1.1/DTD/svg11.dtd'><svg enable-background="new 0 0 512 512" height="512px" id="robot" version="1.1" viewBox="0 0 512 512" width="512px" xml:space="preserve" xmlns="http://www.w3.org/2000/svg" xmlns:xlink="http://www.w3.org/1999/xlink"><path d="M448.571,497.5H67.949c0-105.105,85.205-190.311,190.311-190.311  C363.366,307.189,448.571,392.395,448.571,497.5z" fill="#598889"/><circle cx="161.684" cy="440.762" fill="#66B2B2" r="8.739"/><circle cx="296.373" cy="440.854" fill="#66B2B2" r="8.738"/><path d="M385.464,394.807l-0.128-70.063c-0.01-4.964-4.858-9.018-10.776-9.007  c-5.917,0.012-10.751,4.082-10.742,9.047l0.088,48.125c-28.298-23.802-64.813-38.148-104.684-38.148  c-35.388,0-68.133,11.301-94.837,30.483v-1.729c0-4.964-3.82-9.026-8.49-9.026c-4.669,0-8.49,4.063-8.49,9.026v15.751  c-31.355,29.665-50.923,71.662-50.923,118.234h325.48C421.962,458.559,408.277,422.817,385.464,394.807z" fill="#466C6F"/><rect fill="#52C9D5" height="34.962" transform="matrix(0.7071 -0.7071 0.7071 0.7071 17.4343 128.1894)" width="11.766" x="157.585" y="25.567"/><circle cx="149.274" cy="28.854" fill="#FF7143" r="12.043"/><rect fill="#52C9D5" height="11.766" transform="matrix(0.7071 -0.7071 0.7071 0.7071 72.8913 262.0727)" width="34.961" x="335.319" y="37.165"/><circle cx="366.993" cy="28.854" fill="#FF7143" r="12.043"/><rect fill="#EF6B19" height="93.537" width="14" x="109.723" y="180.39"/><path d="M93.186,299.146c-3.845,0-6.974-3.104-6.999-6.953c-0.045-6.888,3.427-13.523,9.526-18.205  c5.611-4.307,12.988-6.707,20.77-6.758c0.083,0,0.167,0,0.25,0c16.681,0,30.28,10.977,30.37,24.564  c0.025,3.865-3.088,7.02-6.954,7.045c-0.016,0-0.031,0-0.047,0c-3.845,0-6.974-3.104-6.999-6.953  c-0.038-5.8-7.519-10.656-16.369-10.656c-0.054,0-0.105,0-0.159,0c-4.681,0.031-9.178,1.439-12.337,3.864  c-1.522,1.169-4.073,3.632-4.051,7.007c0.025,3.865-3.088,7.02-6.954,7.045C93.217,299.146,93.201,299.146,93.186,299.146z" fill="#5AA096"/><circle cx="117.16" cy="180.827" fill="#FF7143" r="17.921"/><rect fill="#EF6B19" height="93.537" width="14" x="392.955" y="180.39"/><path d="M376.417,299.146c-3.845,0-6.974-3.104-6.999-6.954c-0.088-13.654,13.503-24.852,30.297-24.962  c7.74-0.057,15.188,2.253,20.856,6.486c6.159,4.602,9.718,11.191,9.763,18.078c0.024,3.866-3.089,7.02-6.955,7.045  c-0.015,0-0.03,0-0.046,0c-3.845,0-6.974-3.104-6.999-6.954c-0.021-3.374-2.604-5.804-4.142-6.952  c-3.155-2.357-7.605-3.703-12.229-3.703c-0.052,0-0.104,0-0.156,0c-8.922,0.059-16.427,5.037-16.389,10.871  c0.024,3.866-3.089,7.02-6.955,7.045C376.448,299.146,376.433,299.146,376.417,299.146z" fill="#5AA096"/><circle cx="400.392" cy="180.827" fill="#FF7143" r="17.92"/><path d="M148.114,123.414v156.632h0.009c0.362,60.043,49.142,108.606,109.27,108.606s108.907-48.563,109.27-108.606  h0.009V123.414H148.114z" fill="#52C9D5"/><path d="M366.671,123.778H148.114c0-60.353,48.926-109.278,109.278-109.278S366.671,63.426,366.671,123.778z" fill="#F4F4F4"/><path d="M257.465,123.414v155.961v0.671v108.606c60.095-0.039,108.836-48.588,109.197-108.606h0.009V123.414H257.465  z" fill="#49BAC0"/><rect fill="#E0E0E0" height="20.398" width="218.557" x="148.18" y="123.414"/><rect fill="#C1C1C1" height="20.398" width="109.271" x="257.465" y="123.414"/><path d="M257.465,123.778h109.206c0-60.329-48.887-109.238-109.206-109.277V123.778z" fill="#E0E0E0"/><circle cx="209.822" cy="89.039" fill="#FFD800" r="19.669"/><circle cx="307.729" cy="89.039" fill="#DDBD37" r="19.669"/><circle cx="149.504" cy="176.457" fill="#49BAC0" r="32.782"/><circle cx="367.173" cy="176.457" fill="#52C9D5" r="32.782"/><path d="M312.467,401.543L312.467,401.543c-4.1,0-7.454-2.902-7.454-6.45v-74.684c0-3.548,3.354-6.45,7.454-6.45l0,0  c4.1,0,7.454,2.902,7.454,6.45v74.684C319.921,398.641,316.566,401.543,312.467,401.543z" fill="#5AA096"/><path d="M226.153,449.338L226.153,449.338c-4.1,0-7.454-2.903-7.454-6.451v-74.683c0-3.548,3.354-6.45,7.454-6.45  l0,0c4.1,0,7.454,2.902,7.454,6.45v74.683C233.607,446.435,230.253,449.338,226.153,449.338z" fill="#5AA096"/><path d="M98.973,410.379L98.973,410.379c-4.356,0-7.922-4.398-7.922-9.774V360.83c0-5.375,3.565-9.773,7.922-9.773  l0,0c4.358,0,7.923,4.398,7.923,9.773v39.774C106.896,405.98,103.331,410.379,98.973,410.379z" fill="#5AA096"/><path d="M395.021,469.181L395.021,469.181c-4.882,0-8.875-4.928-8.875-10.949v-44.558  c0-6.022,3.993-10.95,8.875-10.95l0,0c4.881,0,8.875,4.928,8.875,10.95v44.558C403.896,464.253,399.901,469.181,395.021,469.181z" fill="#5AA096"/><polygon fill="#FFD326" points="395.021,384.143 400.213,394.663 411.823,396.35 403.422,404.539 405.405,416.104 395.021,410.644   384.636,416.104 386.619,404.539 378.218,396.35 389.828,394.663 "/><polygon fill="#FFD326" points="98.973,327.5 104.165,338.021 115.776,339.708 107.375,347.897 109.358,359.461 98.973,354.002   88.588,359.461 90.571,347.897 82.17,339.708 93.78,338.021 "/><polygon fill="#FFD326" points="85.866,47.142 91.059,57.663 102.67,59.35 94.268,67.54 96.251,79.104 85.866,73.644 75.481,79.104   77.465,67.54 69.063,59.35 80.674,57.663 "/><polygon fill="#FFD326" points="452.866,153.142 458.059,163.663 469.67,165.35 461.268,173.54 463.251,185.104 452.866,179.644   442.481,185.104 444.465,173.54 436.063,165.35 447.674,163.663 "/><circle cx="60.586" cy="173.407" fill="#66B2B2" r="20.445"/><circle cx="448.416" cy="362.566" fill="#66B2B2" r="20.444"/><circle cx="442.075" cy="459.788" fill="#66B2B2" r="20.445"/><circle cx="463.122" cy="282.76" fill="#66B2B2" r="8.739"/><circle cx="54.157" cy="341.938" fill="#66B2B2" r="8.738"/><circle cx="94.314" cy="460.294" fill="#66B2B2" r="8.739"/></svg>